<?xml version="1.0" standalone="no"?>
<!DOCTYPE svg PUBLIC "-//W3C//DTD SVG 20010904//EN"
 "http://www.w3.org/TR/2001/REC-SVG-20010904/DTD/svg10.dtd">
<svg version="1.0" xmlns="http://www.w3.org/2000/svg"
 width="405.000000pt" height="405.000000pt" viewBox="0 0 405.000000 405.000000"
 preserveAspectRatio="xMidYMid meet">
<metadata>
Created by potrace 1.14, written by Peter Selinger 2001-2017
</metadata>
<g transform="translate(0.000000,405.000000) scale(0.100000,-0.100000)"
fill="#000000" stroke="none">
<path d="M1820 3793 c-106 -13 -111 -14 -101 -27 6 -7 38 -33 71 -57 33 -23
58 -44 57 -45 -2 -3 -58 -11 -124 -19 -111 -14 -255 -52 -394 -106 -42 -16
-82 -29 -90 -29 -8 0 -30 18 -48 40 -37 45 -31 47 -141 -25 -122 -80 -321
-247 -319 -269 0 -6 46 -48 102 -93 56 -46 114 -93 128 -105 15 -13 41 -34 59
-48 137 -103 143 -111 107 -134 -12 -8 -23 -7 -39 3 -20 12 -21 12 -12 0 6 -8
11 -22 11 -33 0 -18 -1 -18 -13 -1 -12 16 -13 16 -12 -1 0 -11 -3 -28 -7 -38
-7 -15 -5 -18 6 -12 8 4 5 1 -5 -8 -10 -8 -22 -13 -27 -11 -4 3 -9 2 -12 -2
-5 -10 -1 6 8 32 7 17 5 17 -9 -2 -21 -28 -58 -32 -50 -5 5 16 5 16 -6 -1 -8
-13 -15 -15 -30 -7 -15 8 -17 7 -13 -11 4 -16 8 -18 14 -7 7 10 9 10 9 0 0 -7
6 -12 13 -11 6 1 19 -1 27 -4 8 -3 24 -8 35 -10 11 -3 -34 -3 -99 -2 -65 2
-122 8 -125 12 -3 5 -21 31 -40 57 -18 26 -64 97 -101 157 l-67 109 -31 -40
c-18 -21 -32 -41 -32 -43 0 -2 -22 -42 -48 -88 -81 -140 -169 -375 -177 -473
-2 -22 -7 -56 -11 -75 l-7 -34 56 6 56 5 166 -119 c91 -65 170 -119 175 -119
4 0 10 -4 12 -8 2 -5 52 -42 113 -83 l110 -74 -50 -6 c-28 -3 -59 -3 -70 1
-24 8 -243 6 -380 -4 l-100 -7 -39 68 c-22 37 -48 79 -59 93 -18 24 -18 24
-16 -80 2 -74 0 -105 -9 -108 -7 -2 -10 -7 -8 -10 2 -4 7 -50 11 -102 7 -105
37 -265 63 -344 15 -46 20 -51 50 -54 27 -3 35 -10 48 -40 28 -68 105 -201
176 -303 20 -29 35 -56 32 -60 -2 -4 -25 -4 -51 -1 l-47 5 18 -29 c115 -177
315 -370 516 -499 195 -125 466 -223 698 -253 79 -10 440 -6 476 5 l29 9 -74
54 c-42 31 -67 56 -59 57 8 1 49 7 90 12 86 11 115 17 185 33 62 15 57 14 75
20 8 3 47 16 85 28 39 12 88 31 109 41 22 11 44 19 50 19 6 0 29 -18 52 -41
l42 -41 68 43 c130 81 354 264 354 289 0 4 -32 34 -71 66 -39 33 -77 64 -83
69 -6 6 -73 60 -150 120 l-138 109 23 18 c13 10 30 23 37 28 6 6 12 7 12 3 0
-4 7 0 14 10 8 10 17 18 21 17 4 -1 21 11 38 27 18 15 35 27 40 25 4 -1 7 2 7
8 0 6 36 10 89 10 87 0 90 -1 115 -30 14 -17 62 -90 107 -163 45 -73 83 -134
86 -136 5 -6 28 27 83 119 113 187 197 412 214 573 l6 59 -53 -6 c-52 -6 -56
-5 -123 40 -38 26 -71 50 -74 54 -3 3 -36 28 -75 55 -38 27 -98 70 -133 96
l-63 48 40 20 c22 12 52 36 67 54 l27 34 81 -4 c44 -2 85 -8 90 -13 9 -9 37
-2 46 11 3 4 21 10 41 14 35 7 36 6 85 -68 27 -42 55 -83 61 -94 10 -15 12 -1
11 78 0 53 3 103 7 110 11 17 6 131 -6 145 -6 7 -7 23 -4 36 6 25 -25 198 -52
283 -13 45 -18 50 -45 52 -16 0 -31 2 -32 4 -2 2 -23 42 -46 89 -45 90 -138
239 -173 277 -26 29 -19 36 38 35 l47 -1 -19 29 c-67 105 -223 274 -348 376
-113 93 -360 237 -422 247 -11 1 -27 8 -35 14 -26 21 -235 82 -338 98 -125 19
-180 23 -300 22 -74 -1 -146 -3 -160 -4z"/>
<path d="M856 2778 c3 -5 9 -6 14 -3 4 3 11 -1 13 -7 4 -10 6 -10 6 0 1 7 6
10 13 6 7 -4 8 -3 4 4 -4 7 -18 11 -31 10 -13 -1 -21 -6 -19 -10z"/>
</g>
</svg>
